<mxfile host="app.diagrams.net" modified="2022-04-20T08:16:49.840Z" agent="5.0 (Windows NT 10.0; Win64; x64) AppleWebKit/537.36 (KHTML, like Gecko) Chrome/100.0.4896.88 Safari/537.36" etag="CRVKMV_zzxh04t4bp7fU" version="17.4.5" type="github">
  <diagram id="dD92YTeW0DkP0v5dgbgX" name="Page-1">
    <mxGraphModel dx="1016" dy="544" grid="0" gridSize="10" guides="1" tooltips="1" connect="1" arrows="1" fold="1" page="0" pageScale="1" pageWidth="413" pageHeight="583" math="0" shadow="0">
      <root>
        <mxCell id="0" />
        <mxCell id="1" parent="0" />
        <mxCell id="VnjknLt5m991F4PrET8S-22" value="" style="rounded=1;whiteSpace=wrap;html=1;" vertex="1" parent="1">
          <mxGeometry x="339" y="357" width="305" height="174" as="geometry" />
        </mxCell>
        <mxCell id="VnjknLt5m991F4PrET8S-15" value="" style="edgeStyle=orthogonalEdgeStyle;rounded=0;orthogonalLoop=1;jettySize=auto;html=1;" edge="1" parent="1" source="VnjknLt5m991F4PrET8S-3" target="VnjknLt5m991F4PrET8S-4">
          <mxGeometry relative="1" as="geometry" />
        </mxCell>
        <mxCell id="VnjknLt5m991F4PrET8S-3" value="" style="shape=image;verticalLabelPosition=bottom;labelBackgroundColor=default;verticalAlign=top;aspect=fixed;imageAspect=0;image=https://upload.wikimedia.org/wikipedia/en/thumb/3/30/Java_programming_language_logo.svg/1200px-Java_programming_language_logo.svg.png;" vertex="1" parent="1">
          <mxGeometry x="22" y="412" width="26.76" height="49" as="geometry" />
        </mxCell>
        <mxCell id="VnjknLt5m991F4PrET8S-16" value="" style="edgeStyle=orthogonalEdgeStyle;rounded=0;orthogonalLoop=1;jettySize=auto;html=1;" edge="1" parent="1" source="VnjknLt5m991F4PrET8S-4" target="VnjknLt5m991F4PrET8S-10">
          <mxGeometry relative="1" as="geometry" />
        </mxCell>
        <mxCell id="VnjknLt5m991F4PrET8S-4" value="" style="shape=image;verticalLabelPosition=bottom;labelBackgroundColor=default;verticalAlign=top;aspect=fixed;imageAspect=0;image=https://upload.wikimedia.org/wikipedia/commons/9/91/Octicons-mark-github.svg;" vertex="1" parent="1">
          <mxGeometry x="111" y="412" width="50" height="50" as="geometry" />
        </mxCell>
        <mxCell id="VnjknLt5m991F4PrET8S-17" value="" style="edgeStyle=orthogonalEdgeStyle;rounded=0;orthogonalLoop=1;jettySize=auto;html=1;" edge="1" parent="1" source="VnjknLt5m991F4PrET8S-10" target="VnjknLt5m991F4PrET8S-12">
          <mxGeometry relative="1" as="geometry" />
        </mxCell>
        <mxCell id="VnjknLt5m991F4PrET8S-10" value="" style="shape=image;verticalLabelPosition=bottom;labelBackgroundColor=default;verticalAlign=top;aspect=fixed;imageAspect=0;image=https://devopedia.org/images/article/403/8230.1645614864.png;" vertex="1" parent="1">
          <mxGeometry x="219" y="414" width="45" height="45" as="geometry" />
        </mxCell>
        <mxCell id="VnjknLt5m991F4PrET8S-12" value="" style="shape=image;verticalLabelPosition=bottom;labelBackgroundColor=default;verticalAlign=top;aspect=fixed;imageAspect=0;image=https://www.awsomeblog.com/wp-content/uploads/2015/07/elastic_beanstalk.png;" vertex="1" parent="1">
          <mxGeometry x="318" y="399.5" width="75" height="75" as="geometry" />
        </mxCell>
        <mxCell id="VnjknLt5m991F4PrET8S-23" value="" style="rounded=1;whiteSpace=wrap;html=1;" vertex="1" parent="1">
          <mxGeometry x="437" y="384" width="183" height="129" as="geometry" />
        </mxCell>
        <mxCell id="VnjknLt5m991F4PrET8S-13" value="" style="shape=image;verticalLabelPosition=bottom;labelBackgroundColor=default;verticalAlign=top;aspect=fixed;imageAspect=0;image=https://cdn.worldvectorlogo.com/logos/aws-ec2.svg;" vertex="1" parent="1">
          <mxGeometry x="420" y="414" width="44" height="53.21" as="geometry" />
        </mxCell>
        <mxCell id="VnjknLt5m991F4PrET8S-47" value="" style="edgeStyle=orthogonalEdgeStyle;rounded=0;orthogonalLoop=1;jettySize=auto;html=1;" edge="1" parent="1" source="VnjknLt5m991F4PrET8S-20" target="VnjknLt5m991F4PrET8S-19">
          <mxGeometry relative="1" as="geometry" />
        </mxCell>
        <mxCell id="VnjknLt5m991F4PrET8S-20" value="" style="shape=image;verticalLabelPosition=bottom;labelBackgroundColor=default;verticalAlign=top;aspect=fixed;imageAspect=0;image=https://pbs.twimg.com/profile_images/1235868806079057921/fTL08u_H_400x400.png;" vertex="1" parent="1">
          <mxGeometry x="487" y="421.81" width="43" height="43" as="geometry" />
        </mxCell>
        <mxCell id="VnjknLt5m991F4PrET8S-30" value="" style="edgeStyle=orthogonalEdgeStyle;rounded=0;orthogonalLoop=1;jettySize=auto;html=1;" edge="1" parent="1" source="VnjknLt5m991F4PrET8S-21" target="VnjknLt5m991F4PrET8S-20">
          <mxGeometry relative="1" as="geometry" />
        </mxCell>
        <mxCell id="VnjknLt5m991F4PrET8S-21" value="" style="shape=image;verticalLabelPosition=bottom;labelBackgroundColor=default;verticalAlign=top;aspect=fixed;imageAspect=0;image=https://1000logos.net/wp-content/uploads/2020/08/Nginx-Symbol.jpg;" vertex="1" parent="1">
          <mxGeometry x="555" y="429.62" width="47" height="29.38" as="geometry" />
        </mxCell>
        <mxCell id="VnjknLt5m991F4PrET8S-24" value="" style="shape=image;verticalLabelPosition=bottom;labelBackgroundColor=default;verticalAlign=top;aspect=fixed;imageAspect=0;image=https://miro.medium.com/max/800/1*KqNnfYtaVshGXbuGUCTOQw.png;" vertex="1" parent="1">
          <mxGeometry x="405" y="546" width="66.71" height="41.69" as="geometry" />
        </mxCell>
        <mxCell id="VnjknLt5m991F4PrET8S-19" value="" style="shape=image;verticalLabelPosition=bottom;labelBackgroundColor=default;verticalAlign=top;aspect=fixed;imageAspect=0;image=https://mariadb.com/wp-content/uploads/2019/11/mariadb-logo-vert_blue-transparent.png;" vertex="1" parent="1">
          <mxGeometry x="442.04" y="538" width="44.96" height="36.66" as="geometry" />
        </mxCell>
        <mxCell id="VnjknLt5m991F4PrET8S-29" value="" style="edgeStyle=orthogonalEdgeStyle;rounded=0;orthogonalLoop=1;jettySize=auto;html=1;" edge="1" parent="1" source="VnjknLt5m991F4PrET8S-28" target="VnjknLt5m991F4PrET8S-21">
          <mxGeometry relative="1" as="geometry" />
        </mxCell>
        <mxCell id="VnjknLt5m991F4PrET8S-28" value="" style="shape=image;verticalLabelPosition=bottom;labelBackgroundColor=default;verticalAlign=top;aspect=fixed;imageAspect=0;image=https://upload.wikimedia.org/wikipedia/commons/thumb/c/cb/Noun_Project_people_icon_3376085.svg/1024px-Noun_Project_people_icon_3376085.svg.png;" vertex="1" parent="1">
          <mxGeometry x="737" y="410.31" width="68" height="68" as="geometry" />
        </mxCell>
        <mxCell id="VnjknLt5m991F4PrET8S-32" value="" style="shape=image;verticalLabelPosition=bottom;labelBackgroundColor=default;verticalAlign=top;aspect=fixed;imageAspect=0;image=https://res.cloudinary.com/nitishk72/image/upload/v1586796259/nstack_in/courses/flutter/flutter-banner.png;" vertex="1" parent="1">
          <mxGeometry x="738.5" y="390.93" width="65" height="30.88" as="geometry" />
        </mxCell>
        <mxCell id="VnjknLt5m991F4PrET8S-34" value="" style="shape=image;verticalLabelPosition=bottom;labelBackgroundColor=default;verticalAlign=top;aspect=fixed;imageAspect=0;image=https://cdn4.iconfinder.com/data/icons/google-i-o-2016/512/google_firebase-2-512.png;" vertex="1" parent="1">
          <mxGeometry x="743.5" y="513" width="55" height="55" as="geometry" />
        </mxCell>
        <mxCell id="VnjknLt5m991F4PrET8S-38" value="" style="endArrow=classic;startArrow=classic;html=1;rounded=0;" edge="1" parent="1" source="VnjknLt5m991F4PrET8S-34" target="VnjknLt5m991F4PrET8S-28">
          <mxGeometry width="50" height="50" relative="1" as="geometry">
            <mxPoint x="724" y="552" as="sourcePoint" />
            <mxPoint x="774" y="502" as="targetPoint" />
          </mxGeometry>
        </mxCell>
        <mxCell id="VnjknLt5m991F4PrET8S-39" value="" style="rounded=1;whiteSpace=wrap;html=1;" vertex="1" parent="1">
          <mxGeometry x="339" y="595" width="305" height="163" as="geometry" />
        </mxCell>
        <mxCell id="VnjknLt5m991F4PrET8S-40" value="" style="shape=image;verticalLabelPosition=bottom;labelBackgroundColor=default;verticalAlign=top;aspect=fixed;imageAspect=0;image=https://www.awsomeblog.com/wp-content/uploads/2015/07/elastic_beanstalk.png;" vertex="1" parent="1">
          <mxGeometry x="318" y="629.5" width="75" height="75" as="geometry" />
        </mxCell>
        <mxCell id="VnjknLt5m991F4PrET8S-41" value="" style="rounded=1;whiteSpace=wrap;html=1;" vertex="1" parent="1">
          <mxGeometry x="437" y="614" width="183" height="129" as="geometry" />
        </mxCell>
        <mxCell id="VnjknLt5m991F4PrET8S-42" value="" style="shape=image;verticalLabelPosition=bottom;labelBackgroundColor=default;verticalAlign=top;aspect=fixed;imageAspect=0;image=https://cdn.worldvectorlogo.com/logos/aws-ec2.svg;" vertex="1" parent="1">
          <mxGeometry x="420" y="644" width="44" height="53.21" as="geometry" />
        </mxCell>
        <mxCell id="VnjknLt5m991F4PrET8S-44" value="" style="edgeStyle=orthogonalEdgeStyle;rounded=0;orthogonalLoop=1;jettySize=auto;html=1;" edge="1" parent="1" source="VnjknLt5m991F4PrET8S-45">
          <mxGeometry relative="1" as="geometry">
            <mxPoint x="529.9999999999998" y="673.2857142857144" as="targetPoint" />
          </mxGeometry>
        </mxCell>
        <mxCell id="VnjknLt5m991F4PrET8S-45" value="" style="shape=image;verticalLabelPosition=bottom;labelBackgroundColor=default;verticalAlign=top;aspect=fixed;imageAspect=0;image=https://1000logos.net/wp-content/uploads/2020/08/Nginx-Symbol.jpg;" vertex="1" parent="1">
          <mxGeometry x="555" y="659.62" width="47" height="29.38" as="geometry" />
        </mxCell>
        <mxCell id="VnjknLt5m991F4PrET8S-48" value="" style="edgeStyle=orthogonalEdgeStyle;rounded=0;orthogonalLoop=1;jettySize=auto;html=1;" edge="1" parent="1" source="VnjknLt5m991F4PrET8S-46" target="VnjknLt5m991F4PrET8S-19">
          <mxGeometry relative="1" as="geometry" />
        </mxCell>
        <mxCell id="VnjknLt5m991F4PrET8S-46" value="" style="shape=image;verticalLabelPosition=bottom;labelBackgroundColor=default;verticalAlign=top;aspect=fixed;imageAspect=0;image=https://cdn.iconscout.com/icon/free/png-256/flask-51-285137.png;" vertex="1" parent="1">
          <mxGeometry x="487" y="656" width="45" height="45" as="geometry" />
        </mxCell>
        <mxCell id="VnjknLt5m991F4PrET8S-51" value="" style="edgeStyle=orthogonalEdgeStyle;rounded=0;orthogonalLoop=1;jettySize=auto;html=1;" edge="1" parent="1" source="VnjknLt5m991F4PrET8S-50" target="VnjknLt5m991F4PrET8S-40">
          <mxGeometry relative="1" as="geometry" />
        </mxCell>
        <mxCell id="VnjknLt5m991F4PrET8S-50" value="" style="shape=image;verticalLabelPosition=bottom;labelBackgroundColor=default;verticalAlign=top;aspect=fixed;imageAspect=0;image=https://cdn3.iconfinder.com/data/icons/logos-and-brands-adobe/512/267_Python-512.png;" vertex="1" parent="1">
          <mxGeometry x="198" y="638.72" width="56.57" height="56.57" as="geometry" />
        </mxCell>
        <mxCell id="VnjknLt5m991F4PrET8S-52" value="" style="endArrow=classic;startArrow=classic;html=1;rounded=0;edgeStyle=elbowEdgeStyle;" edge="1" parent="1" source="VnjknLt5m991F4PrET8S-46" target="VnjknLt5m991F4PrET8S-20">
          <mxGeometry width="50" height="50" relative="1" as="geometry">
            <mxPoint x="498" y="590" as="sourcePoint" />
            <mxPoint x="485" y="531" as="targetPoint" />
            <Array as="points">
              <mxPoint x="517" y="572" />
              <mxPoint x="540" y="558" />
            </Array>
          </mxGeometry>
        </mxCell>
      </root>
    </mxGraphModel>
  </diagram>
</mxfile>
